<svg width="24" height="24" viewBox="0 0 24 24" fill="none" xmlns="http://www.w3.org/2000/svg">
<g id="dumbbell-01">
<path id="Vector" d="M7.73438 13.7321C7.73438 13.7321 8.63984 12.51 9.23438 12.2316C11.0292 11.3913 11.3943 11.0261 12.2344 9.2307C12.5127 8.63597 13.7344 7.73022 13.7344 7.73022M10.2344 16.2329C10.2344 16.2329 11.4561 15.3271 11.7344 14.7324C12.5745 12.9371 12.9396 12.5719 14.7344 11.7315C15.3289 11.4531 16.2344 10.231 16.2344 10.231" stroke="white" stroke-width="2" stroke-linecap="round" stroke-linejoin="round"/>
<path id="Vector_2" d="M14.4313 2.89247C14.9382 2.38383 15.7613 2.38252 16.2698 2.88956L21.0816 7.68766C21.5901 8.1947 21.5914 9.01807 21.0845 9.52672L19.5559 11.0607C19.049 11.5693 18.2259 11.5706 17.7174 11.0636L12.9056 6.26547C12.3972 5.75843 12.3959 4.93506 12.9027 4.42641L14.4313 2.89247Z" stroke="white" stroke-width="2"/>
<path id="Vector_3" d="M4.41377 12.9026C4.92065 12.394 5.74376 12.3927 6.25225 12.8997L11.0641 17.6978C11.5725 18.2049 11.5738 19.0282 11.067 19.5369L9.53836 21.0708C9.03148 21.5795 8.20837 21.5808 7.69988 21.0737L2.88808 16.2756C2.37959 15.7686 2.37829 14.9452 2.88517 14.4366L4.41377 12.9026Z" stroke="white" stroke-width="2"/>
<path id="Vector_4" d="M17.9377 3.45251C19.8201 0.985436 23.14 3.84007 20.5431 6.02869M3.37811 17.9773C0.998474 19.9687 3.99782 23.1586 6.06742 20.4656" stroke="white" stroke-width="2" stroke-linecap="round" stroke-linejoin="round"/>
</g>
</svg>
